HIERARCHY
ROOT Hips
{
	OFFSET 0.000000 0.000000 0.000000 
	CHANNELS 6 Xposition Yposition Zposition Yrotation Zrotation Xrotation 
	JOINT Lumbar
	{
		OFFSET 0.000000 0.000000 0.000000 
		CHANNELS 3 Zrotation Xrotation Yrotation
		JOINT Neck
		{
			OFFSET 0.000000 0.445665 0.000000 
			CHANNELS 3 Zrotation Xrotation Yrotation
			End Site
			{
				OFFSET 0.000000 0.227535 0.000000 
			}
		}
		JOINT RightShoulder
		{
			OFFSET 0.019635 0.377685 0.194865 
			CHANNELS 3 Zrotation Xrotation Yrotation
			JOINT RightElbow
			{
				OFFSET 0.000000 -0.243375 0.000000 
				CHANNELS 2 Zrotation Yrotation
				JOINT RightWrist
				{
					OFFSET 0.000000 -0.264825 0.000000 
					CHANNELS 2 Zrotation Xrotation
					End Site
					{
						OFFSET 0.006600 -0.176220 0.000990 
					}
				}
			}
		}
		JOINT LeftShoulder
		{
			OFFSET 0.019635 0.377685 -0.194865 
			CHANNELS 3 Zrotation Xrotation Yrotation
			JOINT LeftElbow
			{
				OFFSET 0.000000 -0.243375 0.000000 
				CHANNELS 2 Zrotation Yrotation
				JOINT LeftWrist
				{
					OFFSET 0.000000 -0.264825 0.000000 
					CHANNELS 2 Zrotation Xrotation
					End Site
					{
						OFFSET 0.006600 -0.176220 -0.000990 
					}
				}
			}
		}
	}
	JOINT RightHip
	{
		OFFSET 0.052140 -0.069960 0.075570 
		CHANNELS 3 Zrotation Xrotation Yrotation
		JOINT RightKnee
		{
			OFFSET 0.000000 -0.402270 0.000000 
			CHANNELS 1 Zrotation
			JOINT RightAnkle
			{
				OFFSET 0.000000 -0.404085 0.000000 
				CHANNELS 3 Zrotation Xrotation Yrotation
				End Site
				{
					OFFSET 0.204105 -0.089430 0.008415 
				}
			}
		}
	}
	JOINT LeftHip
	{
		OFFSET 0.052140 -0.069960 -0.075570 
		CHANNELS 3 Zrotation Xrotation Yrotation
		JOINT LeftKnee
		{
			OFFSET 0.000000 -0.402270 0.000000 
			CHANNELS 1 Zrotation
			JOINT LeftAnkle
			{
				OFFSET 0.000000 -0.404085 0.000000 
				CHANNELS 3 Zrotation Xrotation Yrotation
				End Site
				{
					OFFSET 0.204105 -0.089430 -0.008415 
				}
			}
		}
	}
}
MOTION
Frames: 24
Frame Time: 0.02
-0.70639 -0.01245 -0.57894 209.7124 -32.08138 -0.85163 48.79373 -0.66869 0.27254 -14.07194 9.02278 -0.83076 -0.44651 -11.64744 44.6747 80.24126 80.96007 -9.71917 -3.63426 -32.30633 22.12865 -6.22848 63.12824 -79.93751 -3.5997 0.26609 28.91081 7.11705 -9.86197 -10.99187 -7.21233 -3.78718 -2.66863 21.09159 20.91411 29.18223 -0.36397 -20.05417 -35.60166 -17.11478
-0.70785 -0.01235 -0.58176 209.85389 -32.05282 -0.71577 48.77014 -0.67752 0.31248 -14.11777 8.94536 -0.83076 -0.46383 -11.67344 44.49438 80.28081 80.9715 -9.73451 -3.6454 -32.31852 21.98849 -6.07408 63.1607 -79.90745 -3.66183 0.21375 28.63646 7.24533 -9.91687 -10.47921 -7.26529 -3.78234 -2.6663 21.1403 21.00595 29.20836 -0.3699 -20.53627 -35.76771 -17.18591
-0.70914 -0.01221 -0.58438 209.9698 -32.02863 -0.57862 48.75059 -0.68566 0.34654 -14.17411 8.8696 -0.83076 -0.47287 -11.67962 44.28178 80.26723 80.98044 -9.73277 -3.65104 -32.3962 21.94318 -6.04841 62.93316 -79.97802 -3.62936 0.26921 28.36902 7.35029 -9.98933 -9.96229 -7.28522 -3.78851 -2.66574 21.18817 21.07493 29.08261 -0.3736 -20.92823 -35.69583 -17.1578
-0.71047 -0.01209 -0.58709 210.09604 -31.99752 -0.44252 48.72154 -0.69356 0.38634 -14.22467 8.79442 -0.83076 -0.48206 -11.70695 44.0541 80.27893 80.98829 -9.73943 -3.65756 -32.44736 21.84912 -5.9495 62.80732 -80.00954 -3.63264 0.26969 28.09206 7.46575 -10.05006 -9.44287 -7.2575 -3.81467 -2.67248 21.23181 21.1534 28.99981 -0.37808 -21.36319 -35.7036 -17.15924
-0.71194 -0.01196 -0.58982 210.2249 -31.9862 -0.30426 48.72434 -0.70291 0.41493 -14.27991 8.71235 -0.83076 -0.51379 -11.6714 43.95073 80.2917 81.00629 -9.74501 -3.67172 -32.48957 21.76898 -5.89457 62.74797 -80.0134 -3.66754 0.29275 27.84063 7.58146 -10.12418 -8.94151 -7.48344 -3.73866 -2.64569 21.29205 21.23497 28.93121 -0.38262 -21.80576 -35.72459 -17.16776
-0.71309 -0.01183 -0.59245 210.34387 -31.93577 -0.17054 48.6621 -0.70968 0.46495 -14.32751 8.64714 -0.83076 -0.48701 -11.77643 43.58199 80.28178 81.00177 -9.74627 -3.66782 -32.56402 21.68604 -5.7843 62.48978 -80.09732 -3.61489 0.28985 27.53994 7.69122 -10.17335 -8.40303 -7.18696 -3.87427 -2.68853 21.32004 21.30493 28.83082 -0.38685 -22.20406 -35.69948 -17.159
-0.71351 -0.01174 -0.5949 210.43484 -31.76807 -0.04624 48.41759 -0.70602 0.57408 -14.35399 8.60835 -0.83076 -0.37877 -12.15261 42.48432 80.28537 80.944 -9.76053 -3.62216 -32.71287 21.57559 -5.50925 61.74316 -80.39328 -3.32844 0.26388 27.08094 7.78962 -10.17731 -7.74921 -5.33901 -4.62104 -2.92689 21.24188 21.34803 28.71698 -0.39081 -22.51171 -35.6448 -17.14514
-0.71362 -0.01164 -0.59725 210.51834 -31.56255 0.07281 48.10786 -0.70038 0.70506 -14.37186 8.59022 -0.83076 -0.19343 -12.69328 41.125 80.25227 80.86358 -9.7654 -3.55739 -32.89081 21.46096 -5.17557 60.80651 -80.76375 -2.9592 0.19959 26.57655 7.88282 -10.15188 -7.06164 -2.98944 -5.57368 -3.2339 21.13488 21.38032 28.58374 -0.39467 -22.77395 -35.56051 -17.1225
-0.71382 -0.01155 -0.59964 210.61015 -31.37961 0.19202 47.82915 -0.69817 0.82666 -14.39201 8.5753 -0.83076 0.00267 -13.23927 39.88373 80.19969 80.78616 -9.76337 -3.49667 -33.0541 21.34601 -4.8558 59.95899 -81.08973 -2.63803 0.09961 26.10549 7.97907 -10.1212 -6.39734 -0.94477 -6.41415 -3.5078 21.05234 21.41801 28.44901 -0.3987 -23.04856 -35.47944 -17.10042
-0.71423 -0.01146 -0.60205 210.68033 -31.17356 0.32066 47.54476 -0.6858 0.94548 -14.4196 8.50665 -0.83076 -0.01072 -13.44856 38.6306 80.31421 80.73332 -9.81544 -3.45458 -33.22654 21.23899 -4.58433 59.08997 -81.46319 -2.27129 0.21008 25.57828 8.07234 -10.16617 -5.69553 1.43063 -7.33836 -3.79239 20.92101 21.45316 28.35007 -0.4021 -23.35526 -35.43048 -17.08815
-0.71412 -0.01135 -0.6044 210.79403 -31.00724 0.42839 47.25668 -0.69343 1.07574 -14.4293 8.55555 -0.83076 0.45105 -14.39588 37.35845 80.05217 80.63162 -9.74336 -3.37015 -33.38502 21.119 -4.20878 58.22488 -81.75524 -1.9788 -0.10647 25.16065 8.16997 -10.05066 -5.06875 3.22988 -8.1309 -4.06779 20.8855 21.4909 28.17507 -0.40682 -23.58537 -35.31207 -17.05502
-0.71272 -0.01117 -0.6066 211.03082 -30.95412 0.48018 46.97373 -0.76279 1.22878 -14.39392 8.91774 -0.83076 2.03228 -17.35927 35.94631 78.93639 80.33516 -9.41166 -3.16635 -33.5061 20.91267 -3.45263 57.41144 -81.79596 -1.93096 -1.78506 25.02607 8.28831 -9.46315 -4.61536 3.36888 -8.56208 -4.32906 21.1126 21.54183 27.78853 -0.4153 -23.61236 -35.00124 -16.96537
-0.7108 -0.01097 -0.60874 211.31152 -30.94308 0.5112 46.68913 -0.85121 1.39315 -14.34064 9.39864 -0.83076 4.12295 -21.05301 34.55408 77.41153 80.00284 -8.94035 -2.92244 -33.61061 20.70093 -2.61008 56.61134 -81.75426 -1.95747 -3.86029 25.00859 8.40965 -8.72233 -4.2462 2.90269 -8.84487 -4.57394 21.43856 21.59489 27.3251 -0.42518 -23.56264 -34.62075 -16.85405
-0.70907 -0.01079 -0.6109 211.57163 -30.91686 0.55114 46.40605 -0.92694 1.55474 -14.29373 9.82933 -0.83076 6.0924 -24.40475 33.25023 75.95621 79.7294 -8.47996 -2.70104 -33.71645 20.5272 -1.88107 55.80964 -81.75393 -1.93785 -5.62381 24.95811 8.52526 -8.07459 -3.86644 2.67572 -9.15967 -4.80731 21.72556 21.64524 26.90617 -0.43427 -23.55292 -34.28372 -16.75639
-0.70752 -0.01059 -0.61309 211.83446 -30.87376 0.59233 46.11863 -1.01959 1.70746 -14.25292 10.24512 -0.83077 7.59272 -27.81875 31.51941 74.98491 79.27408 -8.24086 -2.45901 -33.84799 20.21025 -0.84958 54.98049 -81.73552 -1.96776 -7.92884 24.82248 8.66036 -7.32484 -3.36989 2.60892 -9.62672 -5.12118 21.98748 21.70383 26.45942 -0.44371 -23.52853 -33.91129 -16.64986
-0.70548 -0.01042 -0.6152 212.10177 -30.87494 0.62702 45.83923 -1.08157 1.88061 -14.19659 10.71968 -0.83077 10.19784 -31.2569 30.69417 72.91628 79.191 -7.508 -2.25302 -33.92362 20.18165 -0.41197 54.21644 -81.73951 -1.91276 -9.21819 24.89036 8.75408 -6.75424 -3.13547 2.06899 -9.74439 -5.26504 22.32407 21.74432 26.03591 -0.45313 -23.50623 -33.57682 -16.54724
-0.70226 -0.01037 -0.61711 212.3741 -31.00057 0.64034 45.5961 -1.05414 2.11011 -14.09141 11.32867 -0.83077 15.65724 -34.73106 32.2912 67.86146 80.12299 -5.44426 -2.13602 -33.83258 21.02564 -1.77699 53.61188 -81.7797 -1.60936 -7.44441 25.51184 8.74631 -6.69183 -3.61879 0.27487 -8.88348 -4.92174 22.85674 21.74776 25.84163 -0.46132 -23.60503 -33.5354 -16.54339
-0.69857 -0.01034 -0.61894 212.64894 -31.16748 0.64946 45.35933 -0.99531 2.35851 -13.97382 11.99207 -0.83077 22.21897 -38.17525 34.80951 61.7332 81.42934 -2.88926 -2.0602 -33.68918 22.14625 -3.71716 53.07708 -81.85342 -1.21719 -4.66341 26.33095 8.69427 -6.81879 -4.36082 -1.95964 -7.68423 -4.41154 23.45984 21.73041 25.64806 -0.47125 -23.69314 -33.50449 -16.52942
-0.69506 -0.01028 -0.62079 212.92031 -31.30714 0.66605 45.11042 -0.95074 2.59718 -13.86803 12.63012 -0.83077 28.32903 -41.53605 36.96118 56.12567 82.58568 -0.55963 -1.97944 -33.57977 23.09076 -5.30061 52.52177 -81.94145 -0.86382 -2.45091 27.04591 8.65372 -6.87601 -4.97468 -3.93159 -6.67193 -3.99171 24.02014 21.71383 25.35602 -0.47887 -23.7201 -33.3546 -16.46517
-0.69165 -0.01032 -0.62272 213.20257 -31.48284 0.65832 44.89857 -0.90643 2.84373 -13.73317 13.27629 -0.83077 34.26923 -45.33449 38.91187 50.3399 83.67886 1.78585 -1.84067 -33.425 24.24687 -7.28084 51.91725 -81.90196 -0.5211 0.20994 27.82364 8.64983 -6.8624 -5.63485 -6.18584 -5.51519 -3.51033 24.62466 21.73408 25.46802 -0.48622 -24.01344 -33.67754 -16.62947
-0.68794 -0.01017 -0.62446 213.46275 -31.59431 0.70066 44.61343 -0.85443 3.07488 -13.65916 13.91523 -0.83077 40.79274 -48.2016 41.47689 44.70723 84.96404 4.21061 -1.83107 -33.35469 25.02917 -8.5757 51.4345 -82.13703 -0.13214 2.18811 28.51831 8.55889 -7.03897 -6.26056 -7.95141 -4.57993 -3.11735 25.15851 21.67249 24.7492 -0.50297 -23.76245 -33.02767 -16.31861
-0.68352 -0.0095 -0.62575 213.65584 -31.50458 0.88107 44.10443 -0.78412 3.28752 -13.72971 14.5342 -0.83077 48.87014 -48.52844 45.70952 39.49779 86.9414 6.75491 -2.1855 -33.51103 24.70136 -7.80827 51.24672 -83.13017 0.34776 1.97658 28.91486 8.23971 -7.73299 -6.71295 -8.23515 -4.34756 -3.01251 25.42573 21.39193 21.65626 -0.46991 -21.90703 -29.61773 -14.67384
-0.67883 -0.00865 -0.62684 213.82726 -31.35108 1.11216 43.5253 -0.70795 3.47883 -13.86638 15.14044 -0.83077 57.45089 -47.91237 50.49183 34.53395 89.05573 9.35712 -2.66554 -33.75744 23.98971 -6.33698 51.18339 -84.40205 0.87559 1.05515 29.2239 7.83436 -8.60577 -7.12381 -8.01332 -4.34891 -3.00187 25.62723 21.02979 17.74431 -0.45811 -19.52354 -25.24435 -12.55721
-0.67428 -0.00789 -0.62801 214.01218 -31.23567 1.32123 42.99119 -0.63755 3.66079 -13.991 15.74383 -0.83077 65.66324 -47.7065 54.89344 29.62728 90.93636 11.9189 -3.07678 -33.97597 23.46051 -5.20757 51.07909 -85.53544 1.39008 0.50007 29.58622 7.46736 -9.37169 -7.56331 -8.03635 -4.23839 -2.94609 25.89627 20.70317 14.25762 -0.48875 -17.45092 -21.35621 -10.67094
